<?xml version="1.0" standalone="no"?>
<!DOCTYPE svg PUBLIC "-//W3C//DTD SVG 20010904//EN"
 "http://www.w3.org/TR/2001/REC-SVG-20010904/DTD/svg10.dtd">
<svg version="1.0" xmlns="http://www.w3.org/2000/svg"
 width="2041.000000pt" height="2041.000000pt" viewBox="0 0 2041.000000 2041.000000"
 preserveAspectRatio="xMidYMid meet">
<metadata>
Created by potrace 1.14, written by Peter Selinger 2001-2017
</metadata>
<g transform="translate(0.000000,2041.000000) scale(0.100000,-0.100000)"
fill="#000000" stroke="none">
<path d="M9888 17925 c-2 -2 -86 -6 -188 -9 -102 -4 -205 -8 -230 -11 -25 -2
-85 -6 -135 -9 -49 -3 -106 -8 -125 -10 -19 -2 -66 -7 -105 -11 -132 -12 -305
-31 -365 -40 -24 -4 -74 -10 -150 -19 -19 -2 -66 -9 -105 -16 -38 -6 -83 -13
-100 -16 -16 -2 -41 -7 -55 -9 -14 -3 -41 -7 -60 -10 -40 -5 -33 -4 -280 -51
-236 -45 -227 -43 -280 -55 -25 -6 -52 -12 -60 -14 -481 -107 -895 -222 -1395
-389 -275 -92 -657 -235 -785 -294 -25 -11 -72 -32 -105 -46 -137 -56 -508
-238 -674 -330 -46 -25 -85 -46 -87 -46 -3 0 -21 -11 -42 -23 -20 -13 -82 -50
-137 -82 -55 -32 -122 -72 -150 -90 -86 -54 -250 -160 -260 -168 -5 -4 -66
-46 -135 -94 -179 -123 -447 -329 -580 -443 -14 -12 -45 -38 -69 -58 -24 -21
-53 -46 -65 -57 -12 -11 -56 -49 -96 -85 -132 -115 -541 -530 -685 -695 -333
-380 -670 -832 -822 -1102 -10 -17 -57 -100 -106 -184 -97 -169 -243 -461
-306 -614 -23 -55 -46 -109 -51 -120 -132 -292 -328 -963 -376 -1290 -3 -22
-10 -60 -15 -84 -5 -24 -12 -65 -15 -90 -3 -25 -7 -57 -9 -71 -3 -14 -7 -50
-11 -80 -3 -30 -7 -65 -9 -78 -2 -12 -7 -57 -10 -100 -4 -42 -8 -93 -10 -112
-23 -219 -23 -833 0 -994 2 -17 7 -67 10 -110 3 -43 7 -88 10 -100 2 -12 7
-46 10 -76 3 -30 7 -64 9 -75 2 -11 7 -42 10 -70 8 -59 51 -299 72 -395 3 -14
7 -36 10 -50 3 -14 10 -43 15 -65 5 -22 12 -52 15 -67 3 -15 27 -105 55 -200
27 -95 51 -181 54 -191 14 -59 117 -347 177 -497 129 -318 214 -496 401 -835
214 -387 561 -873 904 -1267 312 -357 727 -754 1073 -1025 8 -6 40 -32 70 -56
30 -24 116 -89 190 -144 963 -713 2003 -1242 3135 -1592 179 -56 471 -138 524
-148 14 -2 27 -6 30 -8 8 -4 343 -83 385 -91 17 -2 47 -9 66 -14 19 -5 49 -11
65 -14 17 -3 62 -12 100 -20 63 -13 97 -19 160 -30 122 -22 392 -66 435 -71
30 -4 62 -9 70 -10 8 -1 40 -6 70 -10 30 -4 62 -9 70 -10 8 -1 47 -6 85 -10
39 -4 77 -8 85 -10 8 -1 47 -6 85 -9 39 -4 86 -9 105 -11 150 -16 225 -22 360
-30 58 -4 119 -8 136 -10 185 -22 1047 -22 1319 0 28 2 88 7 135 10 47 3 103
8 125 10 22 2 72 7 110 10 88 8 142 14 180 20 17 2 51 7 78 10 102 11 144 17
197 25 30 5 78 12 105 16 60 7 396 68 498 90 40 9 83 18 97 20 24 5 214 49
255 60 11 3 31 7 44 10 33 7 244 64 256 69 12 6 -151 -3 -185 -10 -13 -2 -40
-7 -60 -10 -20 -3 -45 -7 -55 -9 -11 -2 -40 -7 -65 -10 -25 -3 -54 -8 -65 -10
-11 -2 -47 -7 -80 -11 -32 -4 -68 -9 -79 -11 -10 -2 -44 -6 -75 -9 -31 -3 -65
-7 -76 -9 -11 -2 -54 -7 -95 -11 -41 -4 -82 -8 -90 -10 -8 -2 -49 -6 -90 -10
-41 -4 -91 -8 -110 -10 -19 -2 -82 -6 -140 -10 -58 -4 -117 -8 -133 -10 -138
-17 -874 -24 -1162 -12 -148 7 -192 10 -350 23 -44 3 -98 7 -120 9 -44 3 -150
13 -205 20 -19 3 -75 9 -125 15 -108 13 -175 21 -195 25 -8 1 -40 6 -70 10
-30 4 -64 9 -75 11 -10 2 -37 6 -60 9 -22 3 -53 8 -70 12 -16 3 -39 7 -50 9
-130 17 -640 126 -838 180 -32 8 -66 17 -75 19 -329 78 -1117 350 -1477 510
-27 12 -108 48 -180 80 -175 77 -543 258 -689 339 -66 36 -121 66 -122 66 -6
0 -294 170 -349 205 -254 163 -332 215 -475 317 -91 65 -175 126 -186 135 -11
10 -58 47 -104 82 -326 249 -762 659 -1035 976 -33 39 -63 72 -66 75 -4 3 -52
61 -108 130 -56 69 -108 132 -115 141 -8 9 -40 52 -72 95 -33 44 -63 83 -67
89 -99 125 -360 522 -484 740 -218 380 -411 828 -543 1256 -41 133 -123 452
-134 519 -3 19 -12 69 -21 110 -19 90 -65 395 -70 465 -2 28 -6 73 -9 100 -16
158 -21 278 -21 525 0 356 13 553 55 835 5 33 12 80 15 105 27 192 122 597
196 828 182 570 453 1133 778 1612 523 772 1102 1374 1797 1872 136 97 378
258 414 276 8 4 56 31 105 61 264 158 841 461 1085 569 158 70 259 115 284
128 16 8 34 14 40 14 6 0 25 7 41 16 30 16 231 97 400 161 109 41 586 202 705
237 282 83 789 207 991 241 19 3 41 8 49 10 8 2 33 6 55 9 22 4 63 10 90 16
28 5 68 12 90 15 22 3 67 10 100 15 33 5 80 12 105 15 25 3 56 8 70 10 14 2
52 7 85 10 33 3 71 8 85 10 14 3 56 7 93 11 37 3 76 7 85 9 10 1 60 6 112 10
52 4 111 8 130 10 138 14 351 19 710 20 361 0 484 -4 700 -20 25 -1 90 -6 145
-10 55 -4 107 -8 115 -10 8 -2 53 -6 100 -10 47 -4 92 -9 101 -10 9 -2 40 -6
70 -10 100 -11 134 -16 159 -20 14 -2 45 -7 70 -10 56 -8 97 -14 130 -20 14
-3 43 -7 65 -10 22 -2 51 -7 65 -10 14 -3 52 -10 85 -15 92 -15 112 -19 215
-40 52 -11 106 -21 120 -24 14 -2 45 -9 70 -15 25 -5 56 -12 70 -15 21 -4 289
-68 340 -81 8 -2 42 -10 75 -18 284 -71 756 -218 1115 -347 129 -46 492 -186
545 -209 11 -5 36 -16 55 -24 931 -392 1639 -827 2330 -1433 150 -131 535
-513 651 -644 40 -46 80 -91 87 -99 147 -158 519 -641 645 -839 83 -129 164
-260 170 -273 4 -8 20 -34 35 -59 23 -39 122 -213 296 -520 32 -56 36 -60 30
-30 -8 44 -82 259 -130 382 -46 117 -194 422 -268 552 -31 54 -56 100 -56 103
0 2 -8 16 -19 31 -10 15 -58 92 -107 172 -131 214 -382 580 -477 696 -9 10
-55 69 -103 129 -334 423 -766 858 -1184 1194 -63 51 -122 98 -131 105 -9 8
-52 40 -95 72 -44 33 -83 62 -89 67 -211 161 -599 408 -955 607 -1131 635
-2226 1054 -3400 1301 -175 37 -448 86 -575 104 -23 3 -50 7 -62 9 -12 3 -50
7 -84 11 -35 4 -66 8 -69 10 -3 1 -36 6 -73 10 -37 3 -76 8 -85 10 -9 1 -48 6
-87 9 -38 4 -86 9 -105 11 -39 4 -137 13 -220 20 -30 3 -95 7 -145 10 -49 3
-128 8 -175 11 -86 6 -807 14 -812 9z"/>
<path d="M10875 16750 c-130 -5 -141 -7 -75 -15 108 -12 142 -16 195 -21 33
-3 71 -7 85 -9 14 -2 54 -6 90 -10 36 -3 72 -8 80 -10 8 -2 40 -7 70 -10 30
-3 96 -12 145 -20 50 -8 106 -16 125 -19 61 -8 112 -17 215 -36 55 -11 116
-22 135 -25 19 -3 42 -8 50 -10 8 -2 31 -7 50 -10 19 -3 94 -19 166 -36 73
-16 140 -31 150 -33 11 -2 48 -12 84 -21 36 -9 75 -19 86 -21 42 -8 382 -106
504 -145 642 -208 1162 -437 1810 -797 113 -63 340 -205 495 -310 143 -96 428
-303 445 -322 3 -3 50 -42 105 -87 227 -183 583 -524 755 -723 40 -47 76 -87
80 -90 16 -12 264 -326 336 -425 227 -311 385 -566 539 -870 78 -153 94 -189
172 -370 57 -133 183 -493 183 -524 0 -10 3 -21 7 -25 4 -3 8 -12 9 -19 2 -7
16 -62 33 -123 26 -97 70 -299 86 -396 24 -146 30 -185 41 -283 3 -27 7 -63 9
-80 26 -196 26 -757 0 -970 -3 -22 -7 -60 -10 -85 -7 -63 -17 -131 -21 -155
-3 -11 -7 -38 -10 -60 -5 -44 -11 -77 -19 -115 -3 -14 -10 -45 -14 -70 -18
-96 -43 -200 -76 -320 -20 -69 -37 -134 -40 -144 -2 -11 -30 -94 -61 -185
-142 -417 -371 -877 -627 -1261 -89 -134 -289 -413 -314 -438 -7 -8 -26 -30
-41 -50 -15 -20 -36 -48 -48 -62 -23 -27 -202 -236 -244 -284 -64 -74 -367
-372 -477 -468 -140 -123 -337 -281 -439 -353 -38 -27 -71 -52 -74 -55 -5 -5
-244 -163 -310 -205 -247 -155 -804 -444 -1145 -595 -77 -34 -159 -70 -182
-81 -74 -33 -383 -155 -513 -202 -490 -177 -926 -299 -1445 -403 -11 -2 -31
-6 -45 -9 -38 -8 -190 -34 -235 -40 -22 -4 -47 -8 -55 -10 -8 -2 -41 -7 -73
-10 -50 -6 -56 -5 -51 9 15 40 -15 86 -84 130 -38 24 -102 97 -102 117 0 10
24 17 90 24 30 3 66 8 80 10 41 6 113 16 140 20 14 3 57 9 95 15 39 5 80 12
91 14 12 2 39 7 60 10 67 11 438 86 469 96 17 5 41 11 55 14 44 8 361 92 485
129 221 66 641 214 770 272 17 7 91 38 165 70 133 56 574 271 700 342 471 263
965 612 1315 926 226 204 397 376 604 612 71 80 177 212 264 330 53 72 100
135 105 140 43 56 234 360 307 490 64 113 184 358 234 475 30 69 59 139 67
155 78 183 190 552 245 810 5 22 11 51 14 65 3 14 7 39 10 55 3 17 10 53 15
80 5 28 12 70 15 95 3 25 7 55 9 67 3 12 8 53 11 90 4 37 9 75 10 83 27 143
27 741 0 980 -7 60 -25 204 -29 230 -2 14 -8 48 -12 75 -4 28 -8 55 -10 60 -1
6 -10 48 -19 95 -31 154 -35 172 -46 213 -6 23 -12 49 -14 57 -19 96 -176 571
-196 595 -5 5 -9 15 -9 22 0 29 -159 371 -261 560 -124 232 -367 604 -501 768
-9 11 -38 47 -64 80 -115 145 -292 342 -449 500 -212 212 -267 263 -482 441
-71 58 -135 111 -143 117 -9 7 -60 46 -115 88 -188 142 -618 429 -645 429 -5
0 -10 3 -10 8 0 4 -10 12 -23 18 -12 6 -67 37 -122 69 -142 83 -534 280 -705
354 -80 35 -158 69 -175 76 -30 13 -279 111 -305 120 -3 1 -16 6 -30 12 -71
30 -553 186 -610 198 -8 2 -55 15 -105 29 -97 28 -521 128 -620 145 -33 6 -71
13 -85 16 -14 3 -41 8 -60 11 -19 2 -57 9 -85 14 -27 5 -66 12 -85 15 -19 3
-46 7 -60 10 -14 2 -45 7 -70 10 -25 3 -54 7 -65 9 -11 2 -49 7 -85 11 -36 4
-72 8 -80 10 -8 2 -47 6 -87 10 -40 4 -85 8 -100 10 -15 2 -66 6 -113 10 -47
4 -95 8 -108 10 -124 20 -1024 28 -1262 11 -69 -5 -143 -10 -165 -11 -47 -3
-175 -14 -225 -20 -19 -2 -60 -7 -90 -10 -69 -7 -125 -14 -170 -20 -19 -3 -53
-7 -75 -10 -22 -3 -51 -7 -65 -9 -14 -3 -61 -10 -105 -16 -44 -7 -87 -14 -96
-15 -9 -2 -34 -6 -55 -9 -65 -10 -345 -66 -414 -83 -36 -8 -76 -17 -90 -20
-147 -26 -852 -232 -965 -282 -24 -10 -285 -111 -300 -115 -49 -14 -449 -191
-555 -245 -442 -225 -737 -401 -1054 -626 -54 -38 -105 -74 -114 -80 -8 -5
-22 -16 -31 -23 -9 -7 -77 -61 -151 -119 -249 -195 -373 -306 -625 -558 -392
-392 -731 -841 -988 -1307 -58 -104 -182 -356 -212 -428 -14 -36 -32 -78 -40
-95 -103 -228 -271 -787 -301 -1000 -2 -16 -8 -52 -13 -80 -6 -27 -12 -66 -15
-85 -2 -19 -8 -57 -11 -85 -4 -27 -8 -61 -10 -74 -2 -12 -7 -60 -11 -105 -3
-44 -10 -112 -14 -151 -8 -72 -5 -643 3 -705 3 -19 8 -67 11 -105 4 -39 8 -81
11 -95 2 -13 7 -46 10 -74 7 -74 15 -129 20 -146 2 -8 7 -35 10 -60 3 -25 8
-53 11 -62 5 -18 11 -48 19 -93 7 -37 53 -229 66 -270 5 -16 23 -77 40 -135
82 -276 181 -526 320 -805 55 -110 109 -216 120 -235 11 -19 42 -71 67 -115
50 -85 85 -142 102 -162 5 -7 10 -15 10 -19 0 -14 181 -270 307 -434 190 -248
507 -586 784 -835 508 -458 1234 -928 1869 -1210 47 -21 110 -49 140 -62 86
-39 305 -128 415 -168 55 -20 109 -40 120 -45 110 -48 801 -250 945 -277 14
-2 86 -18 160 -34 115 -26 220 -46 390 -75 19 -4 42 -8 50 -9 8 -2 26 -4 40
-4 23 -1 20 -6 -36 -59 -68 -64 -92 -102 -100 -165 -4 -23 -7 -43 -8 -43 0 -1
-30 5 -66 12 -36 8 -78 17 -95 19 -16 3 -102 22 -190 41 -88 20 -168 38 -178
40 -10 2 -27 6 -37 9 -10 3 -27 8 -37 10 -28 6 -337 90 -438 120 -130 38 -571
186 -699 234 -747 285 -1389 598 -1828 893 -48 32 -92 58 -97 58 -5 0 -11 3
-13 8 -1 4 -41 34 -88 66 -120 84 -359 265 -390 296 -3 3 -25 21 -50 41 -25
20 -57 47 -72 60 -14 13 -63 56 -107 94 -104 91 -436 425 -536 540 -111 128
-111 128 -209 250 -118 147 -117 146 -146 186 -13 19 -28 39 -32 44 -77 92
-339 497 -460 710 -47 83 -216 418 -303 602 -27 57 -50 101 -52 99 -4 -3 15
-115 31 -196 65 -311 192 -668 359 -1010 58 -119 235 -437 306 -549 109 -173
361 -544 381 -561 3 -3 37 -45 75 -95 403 -525 920 -1019 1470 -1406 66 -46
122 -87 123 -91 2 -5 8 -8 12 -8 5 0 56 -30 112 -67 57 -36 133 -86 170 -110
37 -23 69 -43 71 -43 3 0 147 -83 207 -120 36 -22 220 -126 270 -153 30 -16
84 -45 120 -65 274 -150 781 -387 1099 -514 398 -159 919 -336 1160 -394 9 -2
86 -22 171 -44 85 -22 169 -42 185 -45 17 -4 77 -17 134 -31 58 -14 116 -27
130 -29 14 -3 87 -16 161 -30 74 -14 146 -28 160 -30 36 -5 172 -27 190 -30 8
-2 40 -6 70 -10 30 -4 66 -9 80 -11 14 -3 43 -7 65 -9 22 -3 56 -7 75 -10 19
-2 60 -7 90 -10 30 -2 71 -7 90 -10 19 -2 64 -7 100 -10 36 -2 95 -7 131 -10
361 -31 1060 -36 1349 -10 19 2 82 6 140 10 126 8 156 11 235 20 33 3 80 8
105 11 88 9 339 41 377 48 10 2 41 7 68 10 28 4 57 9 65 11 8 2 37 6 63 10 89
11 489 89 647 126 47 12 93 22 102 24 38 8 308 78 393 102 50 14 97 26 105 28
22 5 377 114 430 132 25 8 50 16 55 17 6 2 17 5 25 8 8 3 69 25 135 47 979
339 1679 686 2325 1151 167 121 494 383 560 450 8 8 40 37 70 64 209 187 586
585 722 762 12 16 25 31 28 34 3 3 41 50 83 105 43 55 83 107 90 115 25 30
206 287 264 375 148 223 317 522 427 754 60 127 168 380 179 416 3 11 12 38
21 60 57 151 83 232 131 395 56 192 103 390 130 545 8 50 17 101 19 115 12 66
37 252 41 305 3 33 7 76 10 95 22 190 23 813 0 931 -2 9 -6 52 -10 95 -4 43
-9 87 -11 98 -2 10 -6 44 -9 75 -4 31 -9 64 -11 74 -3 10 -7 31 -9 49 -5 33
-32 191 -39 223 -3 11 -11 52 -20 90 -108 502 -329 1080 -588 1545 -322 576
-733 1115 -1219 1600 -268 267 -503 472 -799 696 -148 112 -435 314 -447 314
-3 0 -14 7 -23 15 -10 9 -42 31 -71 49 -30 18 -108 66 -174 106 -388 237 -898
495 -1350 682 -652 270 -1298 461 -2000 593 -154 28 -349 59 -515 80 -266 33
-329 40 -590 60 -282 22 -764 34 -1005 25z m-1330 -12286 c353 -33 1066 -38
1410 -9 204 17 202 17 203 -2 1 -10 2 -60 2 -112 0 -70 5 -101 17 -122 10 -16
22 -29 27 -29 6 0 6 -3 0 -9 -5 -5 -52 -12 -104 -16 -52 -4 -113 -9 -135 -11
-286 -25 -1071 -24 -1270 1 -16 2 -61 6 -100 9 -38 3 -92 8 -120 11 -27 3 -72
8 -100 10 -27 3 -66 8 -85 10 -19 2 -59 7 -89 11 -30 3 -61 7 -70 9 -9 1 -40
6 -69 10 l-52 7 22 40 c31 55 86 100 193 159 l90 50 90 -6 c49 -3 112 -8 140
-11z"/>
</g>
</svg>
